<svg width="128" height="128" viewBox="0 0 128 128" fill="none" xmlns="http://www.w3.org/2000/svg">
<g clip-path="url(#clip0_10097_3492)">
<path d="M128 29.2711H0V61.2033H128V29.2711Z" fill="#AD3F37"/>
<path d="M128 66.5253H0V98.4574H128V66.5253Z" fill="#2B4144"/>
<path d="M96.6148 95.9359L64.9078 105.725L33.2012 95.9359V117.202L64.8454 127.687V127.729L64.9078 127.708L64.9705 127.729V127.687L96.6148 117.202V95.9359Z" fill="#CDB99D"/>
<path d="M34.9922 92.5865L36.4373 100.003L53.2197 116.271L54.0514 124.111L64.845 127.687L80.4375 122.562L87.5039 108.376L94.9362 94.0218L34.9922 92.5865Z" fill="#726051"/>
<path d="M87.8641 17.704L64.9679 9.09108H64.7281L41.8321 17.704L30.6836 40.6709V66.9875L33.2012 95.9359L52.2612 110.529L64.7281 112.642V112.683L64.8481 112.662L64.9679 112.683V112.642L77.4348 110.529L96.4951 95.9359L99.0124 66.9875V40.6709L87.8641 17.704Z" fill="#CDB99D"/>
<path d="M71.6803 49.523L70.7214 79.9067L68.8033 85.8876L70.7214 87.8017L74.5574 95.9359L70.1219 100.122L70.9611 106.941L64.9673 112.683L77.4342 110.529L96.4945 95.9359L99.0118 66.9875V40.6709L87.8635 17.704L64.7275 9.09108L64.9673 30.6229L82.4691 38.0394L93.4977 38.9963L93.9771 41.8673L77.1945 42.585L71.6803 49.523Z" fill="#726051"/>
<path d="M32.3623 51.4368L44.5895 47.3697L57.5359 49.523L61.1322 68.4231L55.618 55.7434C55.618 55.7434 53.2204 61.7246 52.5012 61.7246C51.782 61.7246 41.4727 61.9638 41.4727 61.9638L49.1447 59.0928L40.274 57.8967L38.8356 52.8727L32.3623 55.5045V51.4368Z" fill="#201F20"/>
<path d="M96.8547 51.4368L84.6275 47.3697L71.6811 49.523L70.9619 75.3612L73.5992 55.7434C73.5992 55.7434 75.9968 61.7246 76.716 61.7246C77.4352 61.7246 87.7446 61.9638 87.7446 61.9638L80.0726 59.0928L88.9432 57.8967L90.3817 52.8727L96.855 55.5045L96.8547 51.4368Z" fill="#201F20"/>
<path d="M56.0967 79.9067H60.6519L64.2481 83.0169H68.0841L70.6015 79.9067H74.7972V81.4618H71.2009L68.8033 85.8879H63.2892C63.2892 85.8879 59.9327 81.5816 59.6929 81.5816C59.4532 81.5816 56.0967 81.3424 56.0967 81.3424V79.9067Z" fill="#201F20"/>
<path d="M75.5164 90.6724C75.5164 90.6724 71.4407 87.323 70.7215 87.8014C70.0732 88.2328 66.505 89.6351 65.8066 89.9079C65.1082 89.6351 61.5399 88.2328 60.8916 87.8014C60.1724 87.323 56.0967 90.6724 56.0967 90.6724L51.3018 91.1508V92.5862H56.0967L60.8916 91.3901L65.6866 92.5292V92.5862L65.8066 92.5577L65.9266 92.5862V92.5292L70.7215 91.3901L75.5164 92.5862H80.3114V91.1508L75.5164 90.6724Z" fill="#201F20"/>
<path d="M69.5226 97.3712H65.9263H65.6866H62.0903L57.0557 95.9359L61.4911 100.122H65.6866H65.9263H70.1221L74.5575 95.9359L69.5226 97.3712Z" fill="black"/>
<path d="M30.6831 52.2676L24.6895 49.2838L21.333 55.0255L22.2919 70.8154L31.8066 79.9067L30.6831 52.2676Z" fill="#CDB99D"/>
<path d="M98.9369 52.2676L104.931 49.2838L108.287 55.0255L107.328 70.8154L97.8135 79.9067L98.9369 52.2676Z" fill="#726051"/>
<path d="M31.4258 70.5245L36.4378 72.7295L38.6388 95.9359L35.2391 77.5142L31.4258 70.5245Z" fill="#726051"/>
<path d="M97.8566 70.5245L92.8446 72.7295L90.6436 95.9359L94.0433 77.5142L97.8566 70.5245Z" fill="#CDB99D"/>
<path d="M39.6275 55.6404C39.6275 55.6404 47.2262 50.8485 46.7467 50.9036C46.2672 50.9586 38.835 52.8724 38.835 52.8724L39.6275 55.6404Z" fill="#CDB99D"/>
<path d="M89.85 55.6404C89.85 55.6404 82.2513 50.8485 82.7308 50.9036C83.2102 50.9586 90.6425 52.8724 90.6425 52.8724L89.85 55.6404Z" fill="#726051"/>
<path d="M23.4912 59.3318C23.4912 58.8533 25.6491 53.8293 25.6491 53.8293L28.7659 59.0926L28.5261 62.2028L25.6491 65.0737H29.4851L29.0056 71.5333L31.6429 67.227L30.8413 56.1402L24.6901 52.1548L23.4912 59.3318Z" fill="#726051"/>
<path d="M105.965 59.3318C105.965 58.8533 103.807 53.8293 103.807 53.8293L100.691 59.0926L100.93 62.2028L103.807 65.0737H99.9713L100.451 71.5333L97.8135 67.227L98.6151 56.1402L104.766 52.1548L105.965 59.3318Z" fill="#201F20"/>
<path d="M33.2012 95.9359L52.2612 110.529L64.9678 112.642L77.4348 110.529L96.495 95.9359L86.7388 110.879L80.438 122.562L78.394 115.075L67.1257 118.845L59.4537 116.032L64.7281 116.488L52.0836 112.683L33.2012 95.9359Z" fill="#201F20"/>
<path d="M30.6835 52.2676V40.6709L37.8072 25.9954L64.9677 30.6229L92.2894 26.8206L99.0123 40.6709L98.9371 52.2676L104.931 49.2838L107.403 28.2304L90.1416 3.11019L44.8288 0L41.2325 12.2013L30.6835 12.3617L23.4912 38.285L24.6899 49.2838L30.6835 52.2676Z" fill="#201F20"/>
<path d="M32.3617 18.0467C32.3617 18.0467 27.0873 41.8673 28.0462 39.714C29.0052 37.5607 36.4374 20.5747 36.4374 20.5747L46.7468 20.0933L32.3617 18.0467Z" fill="#2B4245"/>
<path d="M45.7881 13.6369L48.4254 4.06709L86.5457 7.65573H51.782L45.7881 13.6369Z" fill="#2B4245"/>
<path d="M48.3828 15.2042L55.1383 10.5267L87.0249 10.7659L55.6177 11.7228L48.3828 15.2042Z" fill="#2B4245"/>
<path d="M52.7402 16.2684L85.0712 13.6369L54.4184 17.9432L52.7402 16.2684Z" fill="#2B4245"/>
<path d="M43.3906 22.0103L60.173 24.6418L63.5296 28.2304L43.3906 22.0103Z" fill="#2B4245"/>
</g>
<defs>
<clipPath id="clip0_10097_3492">
<rect width="128" height="128" fill="white"/>
</clipPath>
</defs>
</svg>
